<svg width="23" height="33" viewBox="0 0 23 33" fill="none" xmlns="http://www.w3.org/2000/svg">
<path d="M0.00380538 1.01061V4.01277C0.00380538 4.81802 0.383117 5.57663 1.02875 6.05817L13.9359 15.7139C14.4605 16.1067 14.4605 16.894 13.9359 17.2867L1.02875 26.9407C0.383117 27.424 0.00292969 28.1826 0.00292969 28.9878V31.99C0.00292969 32.8204 0.951628 33.2947 1.61609 32.797L22.113 17.4652C22.7577 16.9836 22.7577 16.017 22.113 15.5355L1.61699 0.203579C0.951634 -0.295887 0.00380538 0.181156 0.00380538 1.01061Z" fill="#202020"/>
<path d="M1.61409 12.0623L6.25634 15.5352C6.90017 16.0168 6.90017 16.9834 6.25634 17.465L1.61496 20.9361C0.949607 21.4338 0.00180611 20.9585 0.00180611 20.1273L0 12.8711C0 12.039 0.948732 11.5646 1.61409 12.0623Z" fill="#202020"/>
</svg>
